/* XPM */
static char *result[] = {
/* columns rows colors chars-per-pixel */
"55 55 147 2 ",
"   c #36201F",
".  c #38231C",
"X  c #751515",
"o  c #781416",
"O  c #731916",
"+  c #761918",
"@  c #7B1E1B",
"#  c #74201E",
"$  c #7A211D",
"%  c #41322C",
"&  c #423533",
"*  c #4A3A35",
"=  c #673F3D",
"-  c #5F5A54",
";  c #604D4D",
":  c #7B5853",
">  c #812222",
",  c #8F3331",
"<  c #943433",
"1  c #9B3935",
"2  c #9B3D3E",
"3  c #A03D3B",
"4  c #9D4041",
"5  c #8D5855",
"6  c #A04342",
"7  c #A84646",
"8  c #AC4A45",
"9  c #AD4C4A",
"0  c #B4504F",
"q  c #A35552",
"w  c #AC5E5B",
"e  c #BD5956",
"r  c #B45B5A",
"t  c #BB5C5C",
"y  c #8F615D",
"u  c #92625E",
"i  c #AD615F",
"p  c #BB605D",
"a  c #9A6462",
"s  c #9E6A65",
"d  c #966C6F",
"f  c #986E68",
"g  c #9F736E",
"h  c #B46665",
"j  c #BC6765",
"k  c #B76868",
"l  c #A77372",
"z  c #A97572",
"x  c #B47676",
"c  c #B67A7C",
"v  c #BB7F7F",
"b  c #C84E4D",
"n  c #C5514C",
"m  c #C35250",
"M  c #CA5454",
"N  c #C35956",
"B  c #C0575A",
"V  c #C45B5C",
"C  c #CD5B5C",
"Z  c #D45656",
"A  c #D45C5E",
"S  c #DC5D5D",
"D  c #E55D5D",
"F  c #E95C5D",
"G  c #E2605E",
"H  c #DA5E61",
"J  c #E35E60",
"K  c #CC6363",
"L  c #C56B65",
"P  c #CD6967",
"I  c #C36D6B",
"U  c #D46564",
"Y  c #DD6060",
"T  c #D56966",
"R  c #D46A69",
"E  c #DC6D6C",
"W  c #C5726D",
"Q  c #CD736F",
"!  c #DF706E",
"~  c #C57575",
"^  c #CB7572",
"/  c #C37B79",
"(  c #CD7C7A",
")  c #D47371",
"_  c #D47975",
"`  c #D47C7A",
"'  c #E46E6D",
"]  c #E96E6E",
"[  c #E4726F",
"{  c #E36E71",
"}  c #E96E70",
"|  c #E47070",
" . c #BF817D",
".. c #C5807F",
"X. c #CA827E",
"o. c #D8837F",
"O. c #E8817F",
"+. c #C17F83",
"@. c #9C8885",
"#. c #AC8182",
"$. c #BC8284",
"%. c #BE8D8C",
"&. c #B7B3AF",
"*. c #C38483",
"=. c #CC8383",
"-. c #C18986",
";. c #C98885",
":. c #C68789",
">. c #CB878C",
",. c #C78A8C",
"<. c #CD8A8C",
"1. c #D48685",
"2. c #DB8785",
"3. c #D78986",
"4. c #DA8A85",
"5. c #D48C8B",
"6. c #DC8D8B",
"7. c #DF918E",
"8. c #D48F91",
"9. c #CA9391",
"0. c #D39593",
"q. c #DD9193",
"w. c #D79798",
"e. c #DE9599",
"r. c #E48481",
"t. c #EA8080",
"y. c #E58887",
"u. c #E48E8D",
"i. c #E88C89",
"p. c #E3928F",
"a. c #E8928F",
"s. c #E49392",
"d. c #EC9594",
"f. c #EE9996",
"g. c #E3969A",
"h. c #ED9799",
"j. c #E79A98",
"k. c #EC9A9A",
"l. c #F49796",
"z. c #F89497",
"x. c #F39897",
"c. c #F39799",
"v. c #F39898",
"b. c #CDA09E",
"n. c #C6B5AE",
"m. c #CDBCB7",
"M. c None",
/* pixels */
"M.M.M.M.M.M.M.M.M.M.M.M.M.M.M.M.M.M.M.M.M.M.M.M.M.M.M.M.M.M.M.M.M.M.M.M.M.M.M.M.M.M.M.M.M.M.M.M.M.M.M.M.M.M.M.",
"M.M.M.M.M.M.M.M.M.M.M.M.M.M.M.M.M.M.M.M.M.M.M.M.M.M.M.M.M.M.M.M.M.M.M.M.M.M.M.M.M.M.M.M.M.M.M.M.M.M.M.M.M.M.M.",
"M.M.M.M.M.M.M.M.M.M.M.M.M.M.M.M.M.M.M.M.M.M.M.M.M.M.M.M.M.M.M.M.M.M.M.M.M.M.M.M.M.M.M.M.M.M.M.M.M.M.M.M.M.M.M.",
"M.M.M.M.M.M.M.M.M.M.M.M.M.M.M.M.M.M.M.M.M.M.M.M.M.M.M.M.M.M.M.M.M.M.M.M.M.M.M.M.M.M.M.M.M.M.M.M.M.M.M.M.M.M.M.",
"M.M.M.M.M.M.M.M.M.M.M.M.M.M.M.M.M.M.M.M.M.M.M.M.M.M.M.M.M.M.M.M.M.M.M.M.M.M.M.M.M.M.M.M.M.M.M.M.M.M.M.M.M.M.M.",
"M.M.M.M.M.M.M.M.M.M.M.M.M.M.M.M.M.M.M.M.M.M.M.M.M.M.M.M.M.M.M.M.M.M.M.M.M.M.M.M.M.M.M.M.M.M.M.M.M.M.M.M.M.M.M.",
"M.M.M.M.M.M.M.M.M.M.M.M.M.M.M.M.M.M.M.M.M.M.M.M.M.M.M.M.M.M.M.M.M.M.M.M.M.M.M.M.M.M.M.M.M.M.M.M.M.M.M.M.M.M.M.",
"M.M.M.M.M.M.M.M.M.M.M.M.M.M.M.M.M.M.M.M.M.M.M.M.M.M.M.M.M.M.M.M.M.M.M.M.M.M.M.M.M.M.M.M.M.M.M.M.M.M.M.M.M.M.M.",
"M.M.M.M.M.M.M.M.M.M.M.M.M.M.M.M.M.M.M.M.M.M.M.M.M.M.M.M.M.M.M.M.M.M.M.M.M.M.M.M.M.M.M.M.M.M.M.M.M.M.M.M.M.M.M.",
"M.M.M.M.M.M.M.M.M.M.M.M.M.M.M.M.M.M.M.M.M.M.M.M.M.M.M.M.M.M.M.M.M.M.M.M.M.M.M.M.M.M.M.M.M.M.M.M.M.M.M.M.M.M.M.",
"M.M.M.M.M.M.M.M.M.M.M.M.M.M.M.M.M.M.M.M.M.M.M.M.M.M.M.M.M.M.M.M.M.M.M.M.M.M.M.M.M.M.M.M.M.M.M.M.M.M.M.M.M.M.M.",
"M.M.M.M.M.M.M.M.M.M.M.M.M.M.M.M.M.M.M.M.M.M.M.M.M.M.M.M.M.M.M.M.M.M.M.M.M.M.M.M.r r M.M.M.M.M.M.M.M.M.M.M.M.M.",
"M.M.M.M.M.M.M.M.M.M.M.M.H H A C B M.M.M.M.M.M.M.M.M.M.M.M.M.M.M.M.M.M.M.i B C S J S M.M.M.M.M.M.M.M.M.M.M.M.M.",
"M.M.M.M.M.M.M.M.M.M.M.M.H F D Y J Y K M.M.M.M.M.-.5.8.8.,.x M.M.M.M.M.K D F J J J H M.M.M.M.M.M.M.M.M.M.M.M.M.",
"M.M.M.M.M.M.M.M.M.M.M.M.Y D D D F F D Y M.M.1.j.v.x.x.x.x.f.s.<.M.M.S D D D J J J H M.M.M.M.M.M.M.M.M.M.M.M.M.",
"M.M.M.M.M.M.M.M.M.M.M.t D D D F D D D A r 3.l.l.x.v.x.x.x.v.c.v.3.r S G F D J F F D V M.M.M.M.M.M.M.M.M.M.M.M.",
"M.M.M.M.M.M.M.M.M.M.M.r b S D F G F S r 4.c.l.x.x.c.x.x.x.c.l.x.c.y.t H F F D J S Z B M.M.M.M.M.M.M.M.M.M.M.M.",
"M.M.M.M.M.M.M.M.M.M.M.r M Z F F F S e 2.v.x.l.c.x.x.x.x.c.x.x.x.x.x.4.t D G F D M M V M.M.M.M.M.M.M.M.M.M.M.M.",
"M.M.M.M.M.M.M.M.M.M.M.M.H n D D F V X.x.d.s.6.a.d.l.l.x.x.v.x.d.d.d.f.` V D F A e H M.M.M.M.M.M.M.M.M.M.M.M.M.",
"M.M.M.M.M.M.M.M.M.M.M.M.t B M A A I d.x.i.2.4.4.d.l.l.l.x.v.d.u.6.6.u.d.W V Z b C V M.M.M.M.M.M.M.M.M.M.M.M.M.",
"M.M.M.M.M.M.M.M.M.M.M.M.M.r r t t 6.x.v.x.6.*.-.s.x.l.c.v.x.s.<.<.6.s.v.i.t V V V M.M.M.M.M.M.M.M.M.M.M.M.M.M.",
"M.M.M.M.M.M.M.M.M.M.M.M.M.M.M.u / f.x.x.c.;.M.@.9.s.3.=.1.s.0.n.m.0.l.l.c.;.#.M.M.M.M.M.M.M.M.M.M.M.M.M.M.M.M.",
"M.M.M.M.M.M.M.M.M.M.M.M.M.M.M.d q.v.x.x.h.$.& % f 7.2.=.1.a.g - &.b.d.l.v.s.l M.M.M.M.M.M.M.M.M.M.M.M.M.M.M.M.",
"M.M.M.M.M.M.M.M.M.M.M.M.M.M.M.+.c.x.x.x.c.$.* . a q.5.5.6.d.5   ; %.k.x.v.c.X.M.M.M.M.M.M.M.M.M.M.M.M.M.M.M.M.",
"M.M.M.M.M.M.M.M.M.M.M.M.M.M.M.7.x.x.l.c.l.s.s y x i q q i X.X.= : 6.l.v.f.x.q.M.M.M.M.M.M.M.M.M.M.M.M.M.M.M.M.",
"M.M.M.M.M.M.M.M.M.M.M.M.M.M.z s.x.x.x.x.l.x.h.~ r P ! ! P w ~ 7.s.x.l.l.x.x.h.c M.M.M.M.M.M.M.M.M.M.M.M.M.M.M.",
"M.M.M.M.M.M.M.M.M.M.M.M.M.M.*.x.x.x.x.x.x.x.( t ! ' ' ] ' ' p X.c.c.x.x.v.v.c.;.M.M.M.M.M.M.M.M.M.M.M.M.M.M.M.",
"M.M.M.M.M.M.M.M.M.M.M.M.M.M.5.x.x.x.x.x.x.6.p E ' ' ] ] ' [ ! j u.c.x.x.x.v.l.5.M.M.M.M.M.M.M.M.M.M.M.M.M.M.M.",
"M.M.M.M.M.M.M.M.M.M.M.M.M.M.s.x.x.x.x.l.l.W P e , 4 T [ K 6 9 K ^ f.x.x.x.x.z.s.M.M.M.M.M.M.M.M.M.M.M.M.M.M.M.",
"M.M.M.M.M.M.M.M.M.M.M.M.M.x d.v.x.x.x.x.y.L U , O + 8 T , X # 0 L a.x.x.x.x.x.s.x M.M.M.M.M.M.M.M.M.M.M.M.M.M.",
"M.M.M.M.M.M.M.M.M.M.M.M.M.+.d.v.x.x.x.x.` T N > o o 1 V $ o + 3 L o.x.x.x.x.x.d. .M.M.M.M.M.M.M.M.M.M.M.M.M.M.",
"M.M.M.M.M.M.M.M.M.M.M.M.M.>.c.v.x.x.x.l.^ E N > X X 3 V $ o o 1 R _ x.x.x.z.x.f.:.M.M.M.M.M.M.M.M.M.M.M.M.M.M.",
"M.M.M.M.M.M.M.M.M.M.M.M.M.8.c.c.x.x.l.d.I { U < X $ B E , X @ 8 ' ) d.l.x.x.x.x.*.M.M.M.M.M.M.M.M.M.M.M.M.M.M.",
"M.M.M.M.M.M.M.M.M.M.M.M.M.q.c.l.x.x.l.d.h { { C 8 e ' ' K 2 7 U ' ) a.l.x.x.x.x.<.M.M.M.M.M.M.M.M.M.M.M.M.M.M.",
"M.M.M.M.M.M.M.M.M.M.M.M.M.e.c.v.x.x.x.s.h E } } | ' ' ' | { ' [ { ) d.l.x.x.x.x.5.M.M.M.M.M.M.M.M.M.M.M.M.M.M.",
"M.M.M.M.M.M.M.M.M.M.M.M.M.M.c.x.x.x.x.k.~ P ' } ] ] ] ' ] ' ] ' E _ l.l.x.x.x.x.;.M.M.M.M.M.M.M.M.M.M.M.M.M.M.",
"M.M.M.M.M.M.M.M.M.M.M.M.M.M.c.v.v.x.x.c.a.Q E ! ' ' ! [ ' ' ' ! ) u.v.x.x.l.x.s.M.M.M.M.M.M.M.M.M.M.M.M.M.M.M.",
"M.M.M.M.M.M.M.M.M.M.M.M.M.M.s.v.x.x.c.c.x.d.i.r.r.O.O.O.O.O.r.y.l.c.x.x.x.x.x.q.M.M.M.M.M.M.M.M.M.M.M.M.M.M.M.",
"M.M.M.M.M.M.M.M.M.M.M.M.M.M.<.c.z.c.v.x.x.x.x.x.d.x.x.x.d.a.x.x.l.l.l.x.x.l.z.5.M.M.M.M.M.M.M.M.M.M.M.M.M.M.M.",
"M.M.M.M.M.M.M.M.M.M.M.M.M.M.M.s.l.x.v.x.x.x.v.x.a.5.p.7./ 6.x.x.l.l.c.x.x.x.d.M.M.M.M.M.M.M.M.M.M.M.M.M.M.M.M.",
"M.M.M.M.M.M.M.M.M.M.M.M.M.M.M. .s.x.v.v.v.x.l.l.x.6.X./ =.c.x.x.x.x.x.x.x.l.;.M.M.M.M.M.M.M.M.M.M.M.M.M.M.M.M.",
"M.M.M.M.M.M.M.M.M.M.M.M.M.M.M.M.>.h.v.c.x.x.x.x.x.l.d.h.v.v.x.x.x.l.c.x.k.9.M.M.M.M.M.M.M.M.M.M.M.M.M.M.M.M.M.",
"M.M.M.M.M.M.M.M.M.M.M.M.M.M.M.M.M.M.s.h.x.v.f.x.x.l.x.x.v.v.x.l.x.z.v.g.,.M.M.M.M.M.M.M.M.M.M.M.M.M.M.M.M.M.M.",
"M.M.M.M.M.M.M.M.M.M.M.M.M.M.M.M.M.M.M.M.w.g.k.f.f.x.x.x.f.c.k.k.j.j.0.M.M.M.M.M.M.M.M.M.M.M.M.M.M.M.M.M.M.M.M.",
"M.M.M.M.M.M.M.M.M.M.M.M.M.M.M.M.M.M.M.M.M.M.M.M.M.M.M.M.M.M.M.M.M.M.M.M.M.M.M.M.M.M.M.M.M.M.M.M.M.M.M.M.M.M.M.",
"M.M.M.M.M.M.M.M.M.M.M.M.M.M.M.M.M.M.M.M.M.M.M.M.M.M.M.M.M.M.M.M.M.M.M.M.M.M.M.M.M.M.M.M.M.M.M.M.M.M.M.M.M.M.M.",
"M.M.M.M.M.M.M.M.M.M.M.M.M.M.M.M.M.M.M.M.M.M.M.M.M.M.M.M.M.M.M.M.M.M.M.M.M.M.M.M.M.M.M.M.M.M.M.M.M.M.M.M.M.M.M.",
"M.M.M.M.M.M.M.M.M.M.M.M.M.M.M.M.M.M.M.M.M.M.M.M.M.M.M.M.M.M.M.M.M.M.M.M.M.M.M.M.M.M.M.M.M.M.M.M.M.M.M.M.M.M.M.",
"M.M.M.M.M.M.M.M.M.M.M.M.M.M.M.M.M.M.M.M.M.M.M.M.M.M.M.M.M.M.M.M.M.M.M.M.M.M.M.M.M.M.M.M.M.M.M.M.M.M.M.M.M.M.M.",
"M.M.M.M.M.M.M.M.M.M.M.M.M.M.M.M.M.M.M.M.M.M.M.M.M.M.M.M.M.M.M.M.M.M.M.M.M.M.M.M.M.M.M.M.M.M.M.M.M.M.M.M.M.M.M.",
"M.M.M.M.M.M.M.M.M.M.M.M.M.M.M.M.M.M.M.M.M.M.M.M.M.M.M.M.M.M.M.M.M.M.M.M.M.M.M.M.M.M.M.M.M.M.M.M.M.M.M.M.M.M.M.",
"M.M.M.M.M.M.M.M.M.M.M.M.M.M.M.M.M.M.M.M.M.M.M.M.M.M.M.M.M.M.M.M.M.M.M.M.M.M.M.M.M.M.M.M.M.M.M.M.M.M.M.M.M.M.M.",
"M.M.M.M.M.M.M.M.M.M.M.M.M.M.M.M.M.M.M.M.M.M.M.M.M.M.M.M.M.M.M.M.M.M.M.M.M.M.M.M.M.M.M.M.M.M.M.M.M.M.M.M.M.M.M.",
"M.M.M.M.M.M.M.M.M.M.M.M.M.M.M.M.M.M.M.M.M.M.M.M.M.M.M.M.M.M.M.M.M.M.M.M.M.M.M.M.M.M.M.M.M.M.M.M.M.M.M.M.M.M.M.",
"M.M.M.M.M.M.M.M.M.M.M.M.M.M.M.M.M.M.M.M.M.M.M.M.M.M.M.M.M.M.M.M.M.M.M.M.M.M.M.M.M.M.M.M.M.M.M.M.M.M.M.M.M.M.M."
};
