/* XPM */
static char *result[] = {
/* columns rows colors chars-per-pixel */
"55 55 147 2 ",
"   c #030722",
".  c #020924",
"X  c #080E26",
"o  c #010C2C",
"O  c #010E34",
"+  c #000F38",
"@  c #051134",
"#  c #03123B",
"$  c #021344",
"%  c #02154B",
"&  c #011652",
"*  c #021957",
"=  c #041A5B",
"-  c #052255",
";  c #03245D",
":  c #041D63",
">  c #051F6C",
",  c #021F71",
"<  c #042164",
"1  c #0E2264",
"2  c #032866",
"3  c #05236C",
"4  c #0A246C",
"5  c #052D6F",
"6  c #172A65",
"7  c #12296A",
"8  c #042473",
"9  c #0B2673",
"0  c #052F70",
"q  c #05247A",
"w  c #05297D",
"e  c #102872",
"r  c #043171",
"t  c #283C7A",
"y  c #2B447F",
"u  c #35497E",
"i  c #052680",
"p  c #052A84",
"a  c #0C2E85",
"s  c #062C8B",
"d  c #092D8C",
"f  c #053580",
"g  c #053588",
"h  c #04398B",
"j  c #062F91",
"k  c #092F93",
"l  c #0D2E9B",
"z  c #073194",
"x  c #093296",
"c  c #043D91",
"v  c #07359C",
"b  c #08339B",
"n  c #043F98",
"m  c #0A399A",
"M  c #14359C",
"N  c #1C3E9D",
"B  c #233F8C",
"V  c #0537A2",
"C  c #053AA5",
"Z  c #093AA6",
"A  c #0A3BAA",
"S  c #1535A0",
"D  c #0B3FB0",
"F  c #05449B",
"G  c #394C83",
"H  c #26479C",
"J  c #3C5399",
"K  c #0843AE",
"L  c #0746B4",
"P  c #0A42B3",
"I  c #064DB6",
"U  c #0849B5",
"Y  c #0547B8",
"T  c #0C42BB",
"R  c #064ABE",
"E  c #0A4DBD",
"W  c #2646A4",
"Q  c #2A49A0",
"!  c #2D4BAB",
"~  c #3452A3",
"^  c #3D5BA3",
"/  c #3757AA",
"(  c #3A5BAB",
")  c #3955B3",
"_  c #43599C",
"`  c #4B629D",
"'  c #516799",
"]  c #445EA3",
"[  c #4360A3",
"{  c #4964A3",
"}  c #4664B0",
"|  c #4E6CB5",
" . c #5A78B7",
".. c #5772BB",
"X. c #0D45C2",
"o. c #084EC1",
"O. c #0D4ACC",
"+. c #0558C5",
"@. c #0D53CC",
"#. c #055CCF",
"$. c #0858C9",
"%. c #084FD1",
"&. c #104DD5",
"*. c #0753D4",
"=. c #0B55D4",
"-. c #0655DA",
";. c #0A5CD9",
":. c #1156D4",
">. c #135AD4",
",. c #0B63E7",
"<. c #0662EC",
"1. c #0A63EB",
"2. c #0568EE",
"3. c #1666E3",
"4. c #1465E8",
"5. c #0C6DF3",
"6. c #0B6FF9",
"7. c #0E71F9",
"8. c #1872F7",
"9. c #1672FA",
"0. c #5672C2",
"q. c #5B77C3",
"w. c #5E7AC6",
"e. c #627FC1",
"r. c #6A84B5",
"t. c #6683BB",
"y. c #6F89BA",
"u. c #7C93BA",
"i. c #6D89C3",
"p. c #728FC1",
"a. c #7794D4",
"s. c #7997D6",
"d. c #7E9CD6",
"f. c #8EABC9",
"g. c #93ADCD",
"h. c #87A6DD",
"j. c #88A7DD",
"k. c #89A8DE",
"l. c #93AFDA",
"z. c #98B2D1",
"x. c #94B1DC",
"c. c #99B9E6",
"v. c #9ABAE9",
"b. c #A2BFE6",
"n. c #B0CEEE",
"m. c #ABCDF1",
"M. c None",
/* pixels */
"M.M.M.M.M.M.M.M.M.M.M.M.M.M.M.M.M.M.M.M.M.M.M.M.M.M.M.M.M.M.M.M.M.M.M.M.M.M.M.M.M.M.M.M.M.M.M.M.M.M.M.M.M.M.M.",
"M.M.M.M.M.M.M.M.M.M.M.M.M.M.M.M.M.M.M.M.M.M.M.M.M.M.M.M.M.M.M.M.M.M.M.M.M.M.M.M.M.M.M.M.M.M.M.M.M.M.M.M.M.M.M.",
"M.M.M.M.M.M.M.M.M.M.M.M.M.M.M.M.M.M.M.M.M.M.M.M.M.M.M.M.M.M.M.M.M.M.M.M.M.M.M.M.M.M.M.M.M.M.M.M.M.M.M.M.M.M.M.",
"M.M.M.M.M.M.M.M.M.M.M.M.M.M.M.M.M.M.M.M.M.M.M.M.M.M.M.M.M.M.M.M.M.M.M.M.M.M.M.M.M.M.M.M.M.M.M.M.M.M.M.M.M.M.M.",
"M.M.M.M.M.M.M.M.M.M.M.M.M.M.M.M.M.M.M.M.M.M.M.M.M.M.M.M.M.M.M.M.M.M.M.M.M.M.M.M.M.M.M.M.M.M.M.M.M.M.M.M.M.M.M.",
"M.M.M.M.M.M.M.M.M.M.M.M.M.M.M.M.M.M.M.M.M.M.M.M.M.M.M.M.M.M.M.M.M.M.M.M.M.M.M.M.M.M.M.M.M.M.M.M.M.M.M.M.M.M.M.",
"M.M.M.M.M.M.M.M.M.M.M.M.M.M.M.M.M.M.M.M.M.M.M.M.M.M.M.M.M.M.M.M.M.M.M.M.M.M.M.M.M.M.M.M.M.M.M.M.M.M.M.M.M.M.M.",
"M.M.M.M.M.M.M.M.M.M.M.M.M.M.M.M.M.M.M.M.M.M.M.M.M.M.M.M.M.M.M.M.M.M.M.M.M.M.M.M.M.M.M.M.M.M.M.M.M.M.M.M.M.M.M.",
"M.M.M.M.M.M.M.M.M.M.M.M.M.M.M.M.M.M.M.M.M.M.M.M.M.M.M.M.M.M.M.M.M.M.M.M.M.M.M.M.M.M.M.M.M.M.M.M.M.M.M.M.M.M.M.",
"M.M.M.M.M.M.M.M.M.M.M.M.M.M.M.M.M.M.M.M.M.M.M.M.M.M.M.M.M.M.M.M.M.M.M.M.M.M.M.M.M.M.M.M.M.M.M.M.M.M.M.M.M.M.M.",
"M.M.M.M.M.M.M.M.M.M.M.M.M.M.M.M.M.M.M.M.M.M.M.M.M.M.M.M.M.M.M.M.M.M.M.M.M.M.M.M.M.M.M.M.M.M.M.M.M.M.M.M.M.M.M.",
"M.M.M.M.M.M.M.M.M.M.M.M.M.M.M.M.M.M.M.M.M.M.M.M.M.M.M.M.M.M.M.M.M.M.M.M.M.M.M.M.M.M.M.M.M.M.M.M.M.M.M.M.M.M.M.",
"M.M.M.M.M.M.M.M.M.M.M.M.M.M.M.M.M.M.M.M.M.M.M.M.M.M.M.M.M.M.M.M.M.M.M.M.M.M.M.M.M.M.M.M.M.M.M.M.M.M.M.M.M.M.M.",
"M.M.M.M.M.M.M.M.M.M.M.M.M.M.M.M.M.M.M.M.M.M.M.M.M.M.M.M.M.M.M.M.M.M.M.M.M.M.M.M.M.M.M.M.M.M.M.M.M.M.M.M.M.M.M.",
"M.M.M.M.M.M.M.M.M.M.M.M.M.M.M.M.M.M.M.M.M.M.M.M.M.M.M.M.M.M.M.M.M.M.M.M.M.M.M.M.M.M.M.M.M.M.M.M.M.M.M.M.M.M.M.",
"M.M.M.M.M.M.M.M.M.M.M.M.M.M.M.M.M.M.M.M.M.M.M.M.7.7.5.2.5.7.7.M.M.M.M.M.M.M.M.M.M.M.M.M.M.M.M.M.M.M.M.M.M.M.M.",
"M.M.M.M.M.M.M.M.M.M.M.M.M.M.M.M.M.M.M.M.M.8.5.#.F r ; - ; r F #.5.8.M.M.M.M.M.M.M.M.M.M.M.M.M.M.M.M.M.M.M.M.M.",
"M.M.M.M.M.M.M.M.M.M.M.M.M.M.M.M.M.M.M.M.5.@.0 @ . X .   . . . @ r +.5.M.M.M.M.M.M.M.M.M.M.M.M.M.M.M.M.M.M.M.M.",
"M.M.M.M.M.M.M.M.M.M.M.M.M.M.M.M.M.M.M.1.F #   o @ @ o o o o o o . @ F 5.M.M.M.M.M.M.M.M.M.M.M.M.M.M.M.M.M.M.M.",
"M.M.M.M.M.M.M.M.M.M.M.M.M.M.M.M.M.M.1.h o . @ @ @ # @ # # O O o o . X w ,.M.M.M.M.M.M.M.M.M.M.M.M.M.M.M.M.M.M.",
"M.M.M.M.M.M.M.M.M.M.M.M.M.M.M.M.M.1.F o o O # $ $ $ % $ $ $ $ $ + O o o c ,.M.M.M.M.M.M.M.M.M.M.M.M.M.M.M.M.M.",
"M.M.M.M.M.M.M.M.M.M.M.M.M.M.M.M.4.E # o + # % % & * * * & & & $ $ $ + O # I 3.M.M.M.M.M.M.M.M.M.M.M.M.M.M.M.M.",
"M.M.M.M.M.M.M.M.M.M.M.M.M.M.M.M.;.0 o # $ & * * : : : 4 G G G 6 * & $ # o 2 ;.M.M.M.M.M.M.M.M.M.M.M.M.M.M.M.M.",
"M.M.M.M.M.M.M.M.M.M.M.M.M.M.M.M.I # # % * = : > ' u.: G f.g.z.f.t = & % # # U M.M.M.M.M.M.M.M.M.M.M.M.M.M.M.M.",
"M.M.M.M.M.M.M.M.M.M.M.M.M.M.M.:.h + % * : : > ` n.l.> > 9 e e y.r.: : * % # g >.M.M.M.M.M.M.M.M.M.M.M.M.M.M.M.",
"M.M.M.M.M.M.M.M.M.M.M.M.M.M.M.@.3 # * : > 9 ` b.n.l._ _ J B , ] p.8 3 : * $ 3 @.M.M.M.M.M.M.M.M.M.M.M.M.M.M.M.",
"M.M.M.M.M.M.M.M.M.M.M.M.M.M.M.o.< % : 3 8 ] x.v.c.c.c.c.v.p.9 ] t.8 8 8 : % ; E M.M.M.M.M.M.M.M.M.M.M.M.M.M.M.",
"M.M.M.M.M.M.M.M.M.M.M.M.M.M.M.Y < = 3 q B d.j.j.j.j.j.h.k.e.q ^  .w q q 3 = = U M.M.M.M.M.M.M.M.M.M.M.M.M.M.M.",
"M.M.M.M.M.M.M.M.M.M.M.M.M.M.M.L < : 8 w a } a.a.a.a.a.a.s...i ~ | p p i 8 : < K M.M.M.M.M.M.M.M.M.M.M.M.M.M.M.",
"M.M.M.M.M.M.M.M.M.M.M.M.M.M.M.P 0 3 w p p d / q.w.0.( ( ) H p Q ] s p p w > 5 K M.M.M.M.M.M.M.M.M.M.M.M.M.M.M.",
"M.M.M.M.M.M.M.M.M.M.M.M.M.M.M.v w 3 p d d s d W ) ! d d s d s N W d d s p 3 w m M.M.M.M.M.M.M.M.M.M.M.M.M.M.M.",
"M.M.M.M.M.M.M.M.M.M.M.M.M.M.M.M.p 3 s g z j j z M M k k l l l S x g z z p 8 p M.M.M.M.M.M.M.M.M.M.M.M.M.M.M.M.",
"M.M.M.M.M.M.M.M.M.M.M.M.M.M.M.M., q s x l z l x x z z z l l l l b z b k p 8 q M.M.M.M.M.M.M.M.M.M.M.M.M.M.M.M.",
"M.M.M.M.M.M.M.M.M.M.M.M.M.M.M.M.M., w x v v V b x b v v b l V v v v v b p , M.M.M.M.M.M.M.M.M.M.M.M.M.M.M.M.M.",
"M.M.M.M.M.M.M.M.M.M.M.M.M.M.M.M.M.8 w x Z Z Z Z Z A Z A D A A D D A C k q q M.M.M.M.M.M.M.M.M.M.M.M.M.M.M.M.M.",
"M.M.M.M.M.M.M.M.M.M.M.M.M.M.M.M.M.M.s x Z T T T T T T T T T T D D D Z z s M.M.M.M.M.M.M.M.M.M.M.M.M.M.M.M.M.M.",
"M.M.M.M.M.M.M.M.M.M.M.M.M.M.M.M.M.M.M.V C D X.O.O.O.%.O.O.O.O.O.O.D C V M.M.M.M.M.M.M.M.M.M.M.M.M.M.M.M.M.M.M.",
"M.M.M.M.M.M.M.M.M.M.M.M.M.M.M.M.M.M.M.M.R R T X.O.&.&.&.&.%.O.X.X.X.R M.M.M.M.M.M.M.M.M.M.M.M.M.M.M.M.M.M.M.M.",
"M.M.M.M.M.M.M.M.M.M.M.M.M.M.M.M.M.M.M.M.M.@.-.-.%.O.O.O.O.O.%.-.-.=.M.M.M.M.M.M.M.M.M.M.M.M.M.M.M.M.M.M.M.M.M.",
"M.M.M.M.M.M.M.M.M.M.M.M.M.M.M.M.M.M.M.M.M.M.M.M.1.1.<.<.1.1.<.M.M.M.M.M.M.M.M.M.M.M.M.M.M.M.M.M.M.M.M.M.M.M.M.",
"M.M.M.M.M.M.M.M.M.M.M.M.M.M.M.M.M.M.M.M.M.M.M.M.M.M.M.M.M.M.M.M.M.M.M.M.M.M.M.M.M.M.M.M.M.M.M.M.M.M.M.M.M.M.M.",
"M.M.M.M.M.M.M.M.M.M.M.M.M.M.M.M.M.M.M.M.M.M.M.M.M.M.M.M.M.M.M.M.M.M.M.M.M.M.M.M.M.M.M.M.M.M.M.M.M.M.M.M.M.M.M.",
"M.M.M.M.M.M.M.M.M.M.M.M.M.M.M.M.M.M.M.M.M.M.M.M.M.M.M.M.M.M.M.M.M.M.M.M.M.M.M.M.M.M.M.M.M.M.M.M.M.M.M.M.M.M.M.",
"M.M.M.M.M.M.M.M.M.M.M.M.M.M.M.M.M.M.M.M.M.M.M.M.M.M.M.M.M.M.M.M.M.M.M.M.M.M.M.M.M.M.M.M.M.M.M.M.M.M.M.M.M.M.M.",
"M.M.M.M.M.M.M.M.M.M.M.M.M.M.M.M.M.M.M.M.M.M.M.M.M.M.M.M.M.M.M.M.M.M.M.M.M.M.M.M.M.M.M.M.M.M.M.M.M.M.M.M.M.M.M.",
"M.M.M.M.M.M.M.M.M.M.M.M.M.M.M.M.M.M.M.M.M.M.M.M.M.M.M.M.M.M.M.M.M.M.M.M.M.M.M.M.M.M.M.M.M.M.M.M.M.M.M.M.M.M.M.",
"M.M.M.M.M.M.M.M.M.M.M.M.M.M.M.M.M.M.M.M.M.M.M.M.M.M.M.M.M.M.M.M.M.M.M.M.M.M.M.M.M.M.M.M.M.M.M.M.M.M.M.M.M.M.M.",
"M.M.M.M.M.M.M.M.M.M.M.M.M.M.M.M.M.M.M.M.M.M.M.M.M.M.M.M.M.M.M.M.M.M.M.M.M.M.M.M.M.M.M.M.M.M.M.M.M.M.M.M.M.M.M.",
"M.M.M.M.M.M.M.M.M.M.M.M.M.M.M.M.M.M.M.M.M.M.M.M.M.M.M.M.M.M.M.M.M.M.M.M.M.M.M.M.M.M.M.M.M.M.M.M.M.M.M.M.M.M.M.",
"M.M.M.M.M.M.M.M.M.M.M.M.M.M.M.M.M.M.M.M.M.M.M.M.M.M.M.M.M.M.M.M.M.M.M.M.M.M.M.M.M.M.M.M.M.M.M.M.M.M.M.M.M.M.M.",
"M.M.M.M.M.M.M.M.M.M.M.M.M.M.M.M.M.M.M.M.M.M.M.M.M.M.M.M.M.M.M.M.M.M.M.M.M.M.M.M.M.M.M.M.M.M.M.M.M.M.M.M.M.M.M.",
"M.M.M.M.M.M.M.M.M.M.M.M.M.M.M.M.M.M.M.M.M.M.M.M.M.M.M.M.M.M.M.M.M.M.M.M.M.M.M.M.M.M.M.M.M.M.M.M.M.M.M.M.M.M.M.",
"M.M.M.M.M.M.M.M.M.M.M.M.M.M.M.M.M.M.M.M.M.M.M.M.M.M.M.M.M.M.M.M.M.M.M.M.M.M.M.M.M.M.M.M.M.M.M.M.M.M.M.M.M.M.M.",
"M.M.M.M.M.M.M.M.M.M.M.M.M.M.M.M.M.M.M.M.M.M.M.M.M.M.M.M.M.M.M.M.M.M.M.M.M.M.M.M.M.M.M.M.M.M.M.M.M.M.M.M.M.M.M.",
"M.M.M.M.M.M.M.M.M.M.M.M.M.M.M.M.M.M.M.M.M.M.M.M.M.M.M.M.M.M.M.M.M.M.M.M.M.M.M.M.M.M.M.M.M.M.M.M.M.M.M.M.M.M.M."
};
