/* XPM */
static char *result[] = {
/* columns rows colors chars-per-pixel */
"55 55 158 2 ",
"   c #050404",
".  c #090707",
"X  c #060805",
"o  c #070708",
"O  c #0C070A",
"+  c #0C0A09",
"@  c #100D06",
"#  c #110C0B",
"$  c #15110D",
"%  c #1A120E",
"&  c #0D0713",
"*  c #0E1011",
"=  c #131211",
"-  c #1C1514",
";  c #1C1519",
":  c #1F1B19",
">  c #221613",
",  c #241A16",
"<  c #2A1B16",
"1  c #251C1A",
"2  c #2B1E1A",
"3  c #311F1A",
"4  c #282116",
"5  c #2D221C",
"6  c #33231D",
"7  c #3A261E",
"8  c #322C1B",
"9  c #3A2A1E",
"0  c #3F3915",
"q  c #232427",
"w  c #2B2321",
"e  c #2E2822",
"r  c #2D2928",
"t  c #342622",
"y  c #3A2722",
"u  c #362923",
"i  c #3B2B24",
"p  c #372C2A",
"a  c #3D2D29",
"s  c #373524",
"d  c #3E3025",
"f  c #36352A",
"g  c #3E312A",
"h  c #453C1D",
"j  c #422E25",
"k  c #482F26",
"l  c #422E2A",
"z  c #433127",
"x  c #4B3426",
"c  c #413B21",
"v  c #4B3A23",
"b  c #44322A",
"n  c #4B352B",
"m  c #4E392D",
"M  c #51372C",
"N  c #51392D",
"B  c #593E2F",
"V  c #463431",
"C  c #4C3631",
"Z  c #4C3A32",
"A  c #443B39",
"S  c #503733",
"D  c #533C31",
"F  c #593E33",
"G  c #4F4627",
"H  c #50432C",
"J  c #574F2C",
"K  c #5C522E",
"L  c #4A4334",
"P  c #4F443C",
"I  c #574036",
"U  c #5C4234",
"Y  c #55423B",
"T  c #5D4438",
"R  c #535530",
"E  c #685D2D",
"W  c #614435",
"Q  c #61453A",
"!  c #777229",
"~  c #7D7B2A",
"^  c #6A6130",
"/  c #736534",
"(  c #756B3F",
")  c #7A7235",
"_  c #7F7C3C",
"`  c #4E4C4B",
"'  c #544642",
"]  c #564B47",
"[  c #5A4F4B",
"{  c #544D51",
"}  c #5A5350",
"|  c #625B57",
" . c #706343",
".. c #746C40",
"X. c #7A714B",
"o. c #7C775F",
"O. c #636566",
"+. c #686C69",
"@. c #78797C",
"#. c #8E7E2B",
"$. c #867533",
"%. c #8E7736",
"&. c #807D31",
"*. c #82783E",
"=. c #8B7E3B",
"-. c #897B46",
";. c #807F7F",
":. c #8C8534",
">. c #87833C",
",. c #8E8C39",
"<. c #918734",
"1. c #928C32",
"2. c #9C8B33",
"3. c #978B3D",
"4. c #9C8C3C",
"5. c #A19429",
"6. c #A39B34",
"7. c #A1923A",
"8. c #AB953C",
"9. c #AF9A3F",
"0. c #B09D3C",
"q. c #B7A52F",
"w. c #BBA32C",
"e. c #ACA03D",
"r. c #BBAE33",
"t. c #D1BE2E",
"y. c #9C9142",
"u. c #8F805E",
"i. c #A08F42",
"p. c #A29752",
"a. c #988F60",
"s. c #90896F",
"d. c #E5D461",
"f. c #8E8D8D",
"g. c #97918F",
"h. c #989695",
"j. c #9E9D9C",
"k. c #A59F9B",
"l. c #A1A2A2",
"z. c #ADABA6",
"x. c #ADAEAE",
"c. c #B5B5B4",
"v. c #BBB6BA",
"b. c #B7B8B8",
"n. c #B9B9BA",
"m. c #BFC0C0",
"M. c #C3C3C4",
"N. c #C8C5C5",
"B. c #CACBC6",
"V. c #C6C9CC",
"C. c #CBCBCA",
"Z. c LightGray",
"A. c #D4D6D8",
"S. c #DADADA",
"D. c #E5E5E5",
"F. c #F2F2F2",
"G. c #FDFDFD",
"H. c None",
/* pixels */
"H.H.H.H.H.H.H.H.H.H.H.H.H.H.H.H.H.H.H.H.H.H.H.H.H.H.H.H.H.H.H.H.H.H.H.H.H.H.H.H.H.H.H.H.H.H.H.H.H.H.H.H.H.H.H.",
"H.H.H.H.H.H.H.H.H.H.H.H.H.H.H.H.H.H.H.H.H.H.H.H.H.H.H.H.H.H.H.H.H.H.H.H.H.H.H.H.H.H.H.H.H.H.H.H.H.H.H.H.H.H.H.",
"H.H.H.H.H.H.H.H.H.H.H.H.H.H.H.H.H.H.H.H.H.H.H.H.H.H.H.H.H.H.H.H.H.H.H.H.H.H.H.H.H.H.H.H.H.H.H.H.H.H.H.H.H.H.H.",
"H.H.H.H.H.H.H.H.H.H.H.H.H.H.H.H.H.H.H.H.H.H.H.H.H.H.H.H.H.H.H.H.H.H.H.H.H.H.H.H.H.H.H.H.t u H.H.H.H.H.H.H.H.H.",
"H.H.H.H.H.H.H.H.H.H.H.H.H.H.H.H.H.H.H.H.H.H.H.H.H.H.H.H.H.H.H.H.H.H.H.H.H.H.H.H.H.H.H.H.x u H.H.H.H.H.H.H.H.H.",
"H.H.H.H.H.H.H.H.H.H.H.H.H.H.H.H.H.H.H.H.H.H.H.H.H.H.H.H.H.H.H.H.H.H.H.H.H.H.H.; H.H.H.H.D t H.H.; w H.H.H.H.H.",
"H.H.H.H.H.H.H.H.H.H.H.H.H.H.H.H.H.H.H.H.H.H.H.H.H.H.H.H.H.H.H.H.H.H.H.H.H.H.H.t w H.H.u D H.H.H.u i H.H.H.H.H.",
"H.H.H.H.H.H.H.H.H.H.H.H.H.H.H.H.H.H.H.H.H.H.H.H.H.H.H.H.H.H.H.H.H.H.H.H.H.H.H.a 5 H.H.D n H.H.5 n 6 H.H.H.H.H.",
"H.H.H.H.H.H.H.H.H.H.H.H.H.H.H.H.H.H.H.H.H.H.H.H.H.H.H.H.H.H.H.H.H.H.H.H.H.H.H.m 2 H.j H u H.H.b x H.H.H.H.H.H.",
"H.H.H.H.H.H.H.H.H.H.H.H.H.H.H.H.H.H.H.H.H.H.H.H.H.H.H.H.H.H.H.H.H.H.H.H.# H.2 m 5 H.m m < H.u m a H.H.H.H.H.H.",
"H.H.H.H.H.H.H.H.H.H.H.H.H.H.H.H.H.H.H.H.H.H.H.H.H.H.H.H.H.H.H.H.H.H.H.H.5 H.a m 2 e N b H.H.n m t H.H.H.H.H.H.",
"H.H.H.H.H.H.H.H.H.H.H.H.H.H.H.H.H.H.H.H.H.H.H.H.H.H.H.H.H.H.H.H.H.H.H.H.y < b m < b N 5 H.b M b H.H.H.H.H.H.H.",
"H.H.H.H.H.H.H.H.H.H.H.H.H.H.H.H.H.H.H.H.H.H.H.H.H.H.H.H.H.H.H.H.H.H.H.H.t x N z y S b > i M m 6 H.- i H.H.H.H.",
"H.H.H.H.H.H.H.H.H.H.H.H.H.H.H.H.H.H.H.H.H.H.H.H.H.H.H.H.H.H.H.H.H.H.H.H.5 F N z m M 2 3 S D a H.H.a b H.H.H.H.",
"H.H.H.H.H.H.H.H.H.H.H.H.H.H.H.H.H.H.H.H.H.H.H.H.H.H.H.H.H.H.H.H.H.H.H.H.6 D N x N j 2 x N C 1 # i M 6 H.H.H.H.",
"H.H.H.H.H.H.H.H.H.H.H.H.H.H.H.H.H.H.H.H.H.H.H.H.H.H.H.H.H.H.H.H.H.H.H.H.> j M N M 7 b M m t # i M j y : H.H.H.",
"H.H.H.H.H.H.H.H.H.H.H.H.H.H.H.H.H.H.H.H.H.H.H.H.H.H.H.H.H.H.H.H.H.H.H.H.6 U N z 9 k m M u > i S x y b H.H.H.H.",
"H.H.H.H.H.H.H.H.H.H.H.H.H.H.H.H.H.H.H.H.H.H.H.H.H.H.H.H.H.H.H.H.H.H.H.H.a D N m 6 m m i > j N x 7 m y H.H.H.H.",
"H.H.= H.H.H.H.H.H.H.H.H.H.H.H.H.H.H.H.H.H.H.H.H.H.H.H.H.H.H.H.H.H.H.H.H.b N z n 6 m d 4 z N x 7 x n < H.H.H.H.",
"H.H.r H.H.H.H.H.H.H.H.H.H.H.H.H.H.H.H.H.H.H.H.H.H.H.H.H.H.H.H.H.H.H.H.H.Z M 6 u 4 i 9 b N x 6 b m y u H.H.H.H.",
"H.H.p y H.H.H.H.H.H.H.H.H.H.H.H.H.H.H.H.H.H.H.H.H.H.H.H.H.H.H.H.H.H.H.H.F M t i l b l Z j 6 j N y l t H.H.H.H.",
"H.H.H.a , H.H.H.H.H.H.H.H.H.H.H.H.H.H.H.H.H.H.H.H.H.H.H.H.H.H.H.H.H.H.6 W M i y i b l i 7 x M j y b 2 H.H.H.H.",
"H.H.H.u g H.H.H.H.2 H.H.H.H.H.H.H.H.H.H.H.H.H.H.H.H.H.H.H.H.H.H.H.H.H.u W m 7 n i i 2 j m M 7 i b y t H.H.H.H.",
"H.H.H.- b g H.H.H.u b 6 H.H.H.H.H.H.H.H.H.H.H.H.H.H.H.H.H.H.H.H.H.H.H.z W m j m y C u x b 6 i l y a - H.H.H.H.",
"H.H.H.H.1 Z Z t H.H.u Z b , H.H.H.H.H.H.H.H.H.H.H.H.H.H.H.H.H.H.H.H.H.F Q j j m y n y i 6 i u b b e w H.H.H.H.",
"H.H.H.H.H.5 C D b 6 < 6 M L z , H.H.H.H.H.H.H.H.H.H.H.H.H.H.H.H.H.H.2 U F 6 j x 6 n , u a y V b 6 i - H.H.H.H.",
"H.H.H.H.H.H.1 i M B N m x M B I u H.H.H.H.H.H.H.H.H.H.H.H.H.H.H.H.H.m Q N j j j p n 5 6 i Z a 6 b 5 - H.H.H.H.",
"H.H.H.1 a y H.H.< i b M N M M U Q b H.H.H.H.H.H.H.H.H.H.H.H.H.H.H.6 Q U b 6 m j y m y g g y a b y t H.H.H.H.H.",
"H.H.H.H.2 g C V p 6 5 6 i a 9 x U Q k y H.H.H.H.H.f.c.n.B.Z.Z.n.A F U m 6 a n b u t 6 y j b a 9 b , H.H.H.H.H.",
"H.H.H.H.H.H.6 j m N B B F F F y a F W W S t H.f.A.G.G.G.G.G.G.N.' U F b 6 b n y a a y a i u l b 6 - H.H.H.H.H.",
"H.H.H.H.H.H., 5 6 y y u 9 9 i 6 6 u z N T Y g.F.S.n.D.F.D.D.D.k.Y D N 6 9 N b y V 3 2 y u p y y e H.H.H.H.H.H.",
"H.H.H.H.H.H.H.t b Z M S m m n n j 3 y u x ' v.c.+.@.C.B.b.A.M.[ D n 9 9 N b y t V t i y u y p t - H.H.H.H.H.H.",
"H.H.H.H.H.H.H.H.1 p u j j i y a l y i V t V a.=...X.s.z.b.V.j.Z Z y 6 D m i 6 d 5 6 a y y u t 1 H.H.H.H.H.H.H.",
"H.H.H.H.H.H.H.H.H.H.5 y a a i y y l a t w u.d.w.E G o.b.m.c.| b m m m Z j 6 9 p 2 t y y y t , H.H.H.H.H.H.H.H.",
"H.H.H.H.H.H.H.H.H.H.H.H.1 p a i l i y p y p.y.x - s f O.l.h.P n N N F l 6 i z , e a a i p p 1 H.H.H.H.H.H.H.H.",
"H.H.H.H.H.H.H.H.H.H.H.H.H., w p i y i a 9 K H w 4 L - q @.} b m m N Z m d g 5 4 t y i u t 1 H.H.H.H.H.H.H.H.H.",
"H.H.H.H.H.H.H.H.H.H.H.H.H.H.H.w 5 w y u y 8 u t , g + * ` ] x m M N N m z 9 5 e w 6 5 2 H.H.H.H.H.H.H.H.H.H.H.",
"H.H.H.H.H.H.H.H.H.H.H.H.H.H.H.H.H.H.2 2 t 6 6 4 1 ; . X - i m M M N N M m Z y , % > H.H.H.H.H.H.H.H.H.H.H.H.H.",
"H.H.H.H.H.H.H.H.H.H.H.H.H.H.H.H.H.H.H.H.- ; : 1 1 , $   + u M M m N N N N N Z i H.H.H.H.H.H.H.H.H.H.H.H.H.H.H.",
"H.H.H.H.H.H.H.H.H.H.H.H.H.H.H.H.H.H.H.H.H.H.H.# $ # o   X - z v N m N M N m m n < H.H.H.H.H.H.H.H.H.H.H.H.H.H.",
"H.H.H.H.H.H.H.H.H.H.H.H.H.H.H.H.H.H.H.H.H.H.H.H.H.H.H.H.+ & 2 H x j M N M m m x t + H.H.H.H.H.H.H.H.H.H.H.H.H.",
"H.H.H.H.H.H.H.H.H.H.H.H.H.H.H.H.H.H.H.H.H.H.H.H.H.H.H.H.>.~ - z n 3 j N M M z 7 a = H.H.H.H.H.H.H.H.H.H.H.H.H.",
"H.H.H.H.H.H.H.H.H.H.H.H.H.H.H.H.H.H.H.H.H.H.H.H.H.H. .i.$.6.9 9 b t z N N m 8 > p $ H.H.H.H.H.H.H.H.H.H.H.H.H.",
"H.H.H.H.H.H.H.H.H.H.H.H.H.H.H.H.H.H.H.H.H.H.H.H.H.H...) 2.3.8 % t b N m m v 6 - u 1 H.H.H.H.H.H.H.H.H.H.H.H.H.",
"H.H.H.H.H.H.H.H.H.H.H.H.H.H.H.H.H.H.H.H.H.H.H.H.H./ 3.2.i.0.h h n Z N m z i , , 4 - H.H.H.H.H.H.H.H.H.H.H.H.H.",
"H.H.H.H.H.H.H.H.H.H.H.H.H.H.H.H.H.H.H.H.H.<.e.%.7.) s v &.t.w.1.v i u i w = + H.H.H.H.H.H.H.H.H.H.H.H.H.H.H.H.",
"H.H.H.H.H.H.H.H.H.H.H.H.H.H.H.H.H.H.H.H.H.J ^ / 7.0.2.-.R 5.#.@ O 1 H.H.H.H.H.H.H.H.{ { H.H.H.H.H.H.H.H.H.H.H.",
"H.H.H.H.H.H.H.H.H.H.H.H.H.H.H.H.H.H.H.H.H.H.>.1.2.8.r.H.8 <.! H.H.H.H.H.H.H.H.H.H.; ; H.H.H.H.H.H.H.H.H.H.H.H.",
"H.H.H.H.H.H.H.H.H.H.H.H.H.H.H.H.H.H.H.H.H.H._ H.H.H.:.H.H.1.H.H.H.H.H.H.H.H.H.H.H.H.H.H.H.H.H.H.H.H.H.H.H.H.H.",
"H.H.H.H.H.H.H.H.H.H.H.H.H.H.H.H.H.H.H.H.H.H.H.H.H.H.*.H.H.H.H.H.H.H.H.H.H.H.H.H.H.H.H.H.H.H.H.H.H.H.H.H.H.H.H.",
"H.H.H.H.H.H.H.H.H.H.H.H.H.H.H.H.H.H.H.H.H.H.H.H.H.H.H.H.H.H.H.H.H.H.H.H.H.H.H.H.H.H.H.# H.+ H.H.H.H.H.H.H.H.H.",
"H.H.H.H.H.H.H.H.H.H.H.H.H.H.H.H.H.H.H.H.H.H.H.H.H.H.H.H.H.H.H.H.H.H.H.H.H.H.H.H.H.H.H.H.H.H.H.H.H.H.H.H.H.H.H.",
"H.H.H.H.H.H.H.H.H.H.H.H.H.H.H.H.H.H.H.H.H.H.H.H.H.H.H.H.H.H.H.H.H.H.H.H.H.H.H.H.H.H.H.H.H.H.H.H.H.H.H.H.H.H.H.",
"H.H.H.H.H.H.H.H.H.H.H.H.H.H.H.H.H.H.H.H.H.H.H.H.H.H.H.H.H.H.H.H.H.H.H.H.H.H.H.H.H.H.H.H.H.H.H.H.H.H.H.H.H.H.H.",
"H.H.H.H.H.H.H.H.H.H.H.H.H.H.H.H.H.H.H.H.H.H.H.H.H.H.H.H.H.H.H.H.H.H.H.H.H.H.H.H.H.H.H.H.H.H.H.H.H.H.H.H.H.H.H."
};
