/* XPM */
static char *result[] = {
/* columns rows colors chars-per-pixel */
"55 55 159 2 ",
"   c #060506",
".  c #070804",
"X  c #0A0807",
"o  c #0C0708",
"O  c #0F0C0A",
"+  c #120D0C",
"@  c #120E05",
"#  c #19120F",
"$  c #0C0612",
"%  c #0F1012",
"&  c #161311",
"*  c #1C1413",
"=  c #1E1418",
"-  c #221511",
";  c #241B16",
":  c #2B1C16",
">  c #241B1B",
",  c #2B1E1B",
"<  c #301F1B",
"1  c #2D221D",
"2  c #33231E",
"3  c #39261F",
"4  c #342C1D",
"5  c #3B281F",
"6  c #38301E",
"7  c #2D2422",
"8  c #2E2828",
"9  c #252429",
"0  c #342621",
"q  c #392722",
"w  c #352924",
"e  c #3B2B24",
"r  c #342C2A",
"t  c #3C2D29",
"y  c #3B322B",
"u  c #3B2E31",
"i  c #323132",
"p  c #3F3937",
"a  c #443818",
"s  c #422D25",
"d  c #412E2A",
"f  c #453126",
"g  c #4D3527",
"h  c #453E21",
"j  c #44332B",
"k  c #4A352C",
"l  c #4E392D",
"z  c #4A3C25",
"x  c #51372C",
"c  c #51392D",
"v  c #443531",
"b  c #4B3631",
"n  c #4C3A32",
"m  c #463E3C",
"M  c #4A3E38",
"N  c #533C32",
"B  c #593D34",
"V  c #4E442C",
"C  c #4D443B",
"Z  c #554135",
"A  c #5C4235",
"S  c #54413B",
"D  c #5E463A",
"F  c #555537",
"G  c #5C5235",
"H  c #614436",
"J  c #61453B",
"K  c #60483B",
"L  c #695D33",
"P  c #766A3E",
"I  c #7D7835",
"U  c #7D7339",
"Y  c #4A4648",
"T  c #4F4D4D",
"R  c #544642",
"E  c #564C48",
"W  c #58504C",
"Q  c #5A5351",
"!  c #5C5859",
"~  c #555356",
"^  c #625D5B",
"/  c #756C47",
"(  c #7C7042",
")  c #7C7448",
"_  c #7C7352",
"`  c #646464",
"'  c #6C6C6C",
"]  c #7B7764",
"[  c #787A77",
"{  c #787676",
"}  c #857737",
"|  c #827D37",
" . c #8F7E31",
".. c #8D7939",
"X. c #887F42",
"o. c #83794F",
"O. c #8A7E55",
"+. c #807B7C",
"@. c #8B893F",
"#. c #91873C",
"$. c #9D8D3C",
"%. c #928B39",
"&. c #A19435",
"*. c #B7A437",
"=. c #CEBE3A",
"-. c #8B8B4C",
";. c #968A45",
":. c #9C8E42",
">. c #928E4B",
",. c #9E8F4A",
"<. c #9D914C",
"1. c #9B9945",
"2. c #8E805E",
"3. c #8B8554",
"4. c #978F51",
"5. c #A19146",
"6. c #A09B41",
"7. c #AE9D42",
"8. c #A99649",
"9. c #AF9B4A",
"0. c #A2975A",
"q. c #ADA349",
"w. c #B9B042",
"e. c #998F63",
"r. c #918875",
"t. c #E2D468",
"y. c #817F80",
"u. c #838182",
"i. c #8C8C8B",
"p. c #908D8E",
"a. c #969596",
"s. c #989494",
"d. c #9D9B9C",
"f. c #A29F9C",
"g. c #A29FA1",
"h. c #A5A4A5",
"j. c #ADAAA6",
"k. c #ACABAC",
"l. c #B0AEAF",
"z. c #B5B5B5",
"x. c #B9B6B8",
"c. c #BCBBBC",
"v. c #BBB5B5",
"b. c #C0BEBF",
"n. c #C0BFC0",
"m. c #C3C2C2",
"M. c #C9C7C9",
"N. c #C7C9CC",
"B. c #CBCBCB",
"V. c #CACCC5",
"C. c #CFCED0",
"Z. c #D3D2D3",
"A. c #D4D6D8",
"S. c #DAD9DA",
"D. c #E4E3E4",
"F. c #EDECED",
"G. c #F2F1F1",
"H. c #FDFDFD",
"J. c None",
/* pixels */
"J.J.J.J.J.J.J.J.J.J.J.J.J.J.J.J.J.J.J.J.J.J.J.J.J.J.J.J.J.J.J.J.J.J.J.J.J.J.J.J.J.J.J.J.J.J.J.J.J.J.J.J.J.J.J.",
"J.J.J.J.J.J.J.J.J.J.J.J.J.J.J.J.J.J.J.J.J.J.J.J.J.J.J.J.J.J.J.J.J.J.J.J.J.J.J.J.J.J.J.J.J.J.J.J.J.J.J.J.J.J.J.",
"J.J.J.J.J.J.J.J.J.J.J.J.J.J.J.J.J.J.J.J.J.J.J.J.J.J.J.J.J.J.J.J.J.J.J.J.J.J.J.J.J.J.J.J.J.J.J.J.J.J.J.J.J.J.J.",
"J.J.J.J.J.J.J.J.J.u r J.J.J.J.J.J.J.J.J.J.J.J.J.J.J.J.J.J.J.J.J.J.J.J.J.J.J.J.J.J.J.J.J.J.J.J.J.J.J.J.J.J.J.J.",
"J.J.J.J.J.J.J.J.J.v b J.J.J.J.J.J.J.J.J.J.J.J.J.J.J.J.J.J.J.J.J.J.J.J.J.J.J.J.J.J.J.J.J.J.J.J.J.J.J.J.J.J.J.J.",
"J.J.J.J.J.1 J.J.J.J.n J.J.J.J.> J.J.J.J.J.J.J.J.J.J.J.J.J.J.J.J.J.J.J.J.J.J.J.J.J.J.J.J.J.J.J.J.J.J.J.J.J.J.J.",
"J.J.J.J.J.e e J.J.J.B j J.J.7 r J.J.J.J.J.J.J.J.J.J.J.J.J.J.J.J.J.J.J.J.J.J.J.J.J.J.J.J.J.J.J.J.J.J.J.J.J.J.J.",
"J.J.J.J.J.e b J.J.J.b Z J.J.0 y J.J.J.J.J.J.J.J.J.J.J.J.J.J.J.J.J.J.J.J.J.J.J.J.J.J.J.J.J.J.J.J.J.J.J.J.J.J.J.",
"J.J.J.J.J.J.k k J.J.t Z J.J.2 k J.J.J.J.J.J.J.J.J.J.J.J.J.J.J.J.J.J.J.J.J.J.J.J.J.J.J.J.J.J.J.J.J.J.J.J.J.J.J.",
"J.J.J.J.J.J.y n k J.1 l n J.0 n 0 J.J.J.J.J.J.J.J.J.J.J.J.J.J.J.J.J.J.J.J.J.J.J.J.J.J.J.J.J.J.J.J.J.J.J.J.J.J.",
"J.J.J.J.J.J.t n l J.J.f n y < b j J.7 J.J.J.J.J.J.J.J.J.J.J.J.J.J.J.J.J.J.J.J.J.J.J.J.J.J.J.J.J.J.J.J.J.J.J.J.",
"J.J.J.J.J.J.J.k l n J.w c b , l j 2 r J.J.J.J.J.J.J.J.J.J.J.J.J.J.J.J.J.J.J.J.J.J.J.J.J.J.J.J.J.J.J.J.J.J.J.J.",
"J.J.J.J.t J.J.w l l s J.k n q f x f w J.J.J.J.J.J.J.J.J.J.J.J.J.J.J.J.J.J.J.J.J.J.J.J.J.J.J.J.J.J.J.J.J.J.J.J.",
"J.J.J.J.j j J.J.j c N 3 < l l f c B 0 J.J.J.J.J.J.J.J.J.J.J.J.J.J.J.J.J.J.J.J.J.J.J.J.J.J.J.J.J.J.J.J.J.J.J.J.",
"J.J.J.J.2 b s J.1 b c k : s x g x N 0 J.J.J.J.J.J.J.J.J.J.J.J.J.J.J.J.J.J.J.J.J.J.J.J.J.J.J.J.J.J.J.J.J.J.J.J.",
"J.J.J.J.w s x t & w l c j 3 l c x s : J.J.J.J.J.J.J.J.J.J.J.J.J.J.J.J.J.J.J.J.J.J.J.J.J.J.J.J.J.J.J.J.J.J.J.J.",
"J.J.J.J.d q f N t - e l l f 3 j c A 3 J.J.J.J.J.J.J.J.J.J.J.J.J.J.J.J.J.J.J.J.J.J.J.J.J.J.J.J.J.J.J.J.J.J.J.J.",
"J.J.J.J.s k s k c e - e l l 1 k c c j J.J.J.J.J.J.J.J.J.J.J.J.J.J.J.J.J.J.J.J.J.J.J.J.J.J.J.J.J.J.J.J.J.J.J.J.",
"J.J.J.J., f k 3 k c s : t l 0 k j l v J.J.J.J.J.J.J.J.J.J.J.J.J.J.J.J.J.J.J.J.J.J.J.J.J.J.J.J.J.J.J.J.J.J.J.J.",
"J.J.J.J.e q x d 3 g c k 3 e , 0 2 N N J.J.J.J.J.J.J.J.J.J.J.J.J.J.J.J.J.J.J.J.J.J.J.J.J.J.J.J.J.J.J.J.J.i J.J.",
"J.J.J.J.0 d e b j 2 s c d j d e 1 x A J.J.J.J.J.J.J.J.J.J.J.J.J.J.J.J.J.J.J.J.J.J.J.J.J.J.J.J.J.J.J.J.w u J.J.",
"J.J.J.J.7 y e s l g 2 e j d d s t c H J.J.J.J.J.J.J.J.J.J.J.J.J.J.J.J.J.J.J.J.J.J.J.J.J.J.J.J.J.J.J.J.v J.J.J.",
"J.J.J.J.0 0 j e q l b s < e d b e g H d J.J.J.J.J.J.J.J.J.J.J.J.J.J.J.J.J.J.J.J.J.J.J.J.J.7 J.J.J.J.j r J.J.J.",
"J.J.J.J.; t 3 j e 3 f j q b 0 x s l H k J.J.J.J.J.J.J.J.J.J.J.J.J.J.J.J.J.J.J.J.J.J.J.e v y J.J.J.v j J.J.J.J.",
"J.J.J.J.r 2 j y e t 2 0 e k 0 l 5 t D B J.J.J.J.J.J.J.J.J.J.J.J.J.J.J.J.J.J.J.J.J., v n t J.J.t S M 1 J.J.J.J.",
"J.J.J.J.; r 3 v v 0 e e : k 2 g f 3 B A 2 J.J.J.J.J.J.J.J.J.J.J.J.J.J.J.J.J.J., j V l w : e b N v 0 J.J.J.J.J.",
"J.J.J.J.J.2 j 2 t n t 0 2 l w f f e B H l J.J.J.J.J.J.J.J.J.J.J.J.J.J.J.J.J.s Z B l g g N N c t J.J.J.J.J.J.J.",
"J.J.J.J.J.w e y e 0 t d 3 b w e l 5 f A D e J.J.J.J.J.J.J.J.J.J.J.J.J.J.J.v D A c g c c f e < J.J.d v J.J.J.J.",
"J.J.J.J.J.1 j w d d d q < 0 q k k e 5 l A Z C c.S.A.B.c.z.a.J.J.J.J.J.t g J B f 5 e e 4 2 q v b b j J.J.J.J.J.",
"J.J.J.J.J.> 0 j d e e d e t d q k f 4 j B A R m.H.H.H.H.H.H.S.a.J.t N J H A d 5 Z B B B B c l e 7 J.J.J.J.J.J.",
"J.J.J.J.J.J.0 0 0 e r q < 2 j q f l 5 3 l B S f.D.D.D.G.D.z.S.G.s.B J x d q < 0 e e q e e q 3 1 > J.J.J.J.J.J.",
"J.J.J.J.J.J.; w r e q q e q v w w j l 3 e k n W m.A.z.V.V.[ ' z.v.R f q q < t b b x x x n v v u J.J.J.J.J.J.J.",
"J.J.J.J.J.J.J.7 0 r q e t 2 < t 1 t l N 3 3 n M d.B.x.j.r._ / -.4.M 0 y s 0 d d s s s s e t 7 J.J.J.J.J.J.J.J.",
"J.J.J.J.J.J.J.J.; 0 e 0 0 0 , t 5 1 s l l k l j ^ k.n.x.] V L *.t.2.7 0 t t e 0 q e t w 1 J.J.J.J.J.J.J.J.J.J.",
"J.J.J.J.J.J.J.J.8 u t w e t 8 ; f e 2 j B c l k C a.h.` i y * z ,.0.0 e e e t t t r 7 J.J.J.J.J.J.J.J.J.J.J.J.",
"J.J.J.J.J.J.J.J.J., w e e e w , 1 j t l c c l c j ~ y.9 & C 1 0 V G w t e e e r 8 J.J.J.J.J.J.J.J.J.J.J.J.J.J.",
"J.J.J.J.J.J.J.J.J.J.J.1 1 2 7 7 4 0 t l c c c c j E T % O y > 7 e 4 e w 0 0 7 J.J.J.J.J.J.J.J.J.J.J.J.J.J.J.J.",
"J.J.J.J.J.J.J.J.J.J.J.J.J.J.J., e n V c c c l c l w & . X = ; 1 1 2 8 7 7 J.J.J.J.J.J.J.J.J.J.J.J.J.J.J.J.J.J.",
"J.J.J.J.J.J.J.J.J.J.J.J.J.J.J.e l c x x c c c c l e O . & = > 1 ; ; > J.J.J.J.J.J.J.J.J.J.J.J.J.J.J.J.J.J.J.J.",
"J.J.J.J.J.J.J.J.J.J.J.J.J.J., k c c x c c l c g f * .   X & & + J.J.J.J.J.J.J.J.J.J.J.J.J.J.J.J.J.J.J.J.J.J.J.",
"J.J.J.J.J.J.J.J.J.J.J.J.J.J.w f l c c c l s k n > o + J.J.J.J.J.J.J.J.J.J.J.J.J.J.J.J.J.J.J.J.J.J.J.J.J.J.J.J.",
"J.J.J.J.J.J.J.J.J.J.J.J.J.& y e f l c c s : l f * -.4.J.J.J.J.J.J.J.J.J.J.J.J.J.J.J.J.J.J.J.J.J.J.J.J.J.J.J.J.",
"J.J.J.J.J.J.J.J.J.J.J.J.J.& r - 4 l c c f 3 j e 5 1.} 4.o.J.J.J.J.J.J.J.J.J.J.J.J.J.J.J.J.J.J.J.J.J.J.J.J.J.J.",
"J.J.J.J.J.J.J.J.J.J.u.x.J.7 w * 2 k c g c f 0 & 4 ;.:.U ) J.J.J.J.J.J.J.J.J.J.J.J.J.J.J.J.J.J.J.J.J.J.J.J.J.J.",
"J.J.J.J.J.J.J.J.J.g.S.m.M.[ v r 7 t t l b N l h a 7.8.:.4.) J.J.J.J.J.J.J.J.J.J.J.J.J.J.J.J.J.J.J.J.J.J.J.J.J.",
"J.J.J.J.J.J.J.' m.H.k.k.D.n.i.c.^ # 1 t e 0 z #.*.=.@.J.z X.,...q.>.J.J.J.J.J.J.J.J.J.J.J.J.J.J.J.J.J.J.J.J.J.",
"J.J.J.J.J.J.d.D.H.H.h.p.[ h.h.i.k.J.J.J.J.= o @  .&.F o.5.7.5.P o.J.J.J.J.J.J.J.J.J.J.J.J.J.J.J.J.J.J.J.J.J.J.",
"J.J.J.J.u.M.H.H.D.C.M.f.' u.c.Z.c.J.J.J.J.J.J.J.I %.J.J.w.&.$.>.-.J.J.J.J.J.J.J.J.J.J.J.J.J.J.J.J.J.J.J.J.J.J.",
"J.J.J.J.G.H.G.x.x.G.A.x.l.n.n.g.` J.J.J.J.J.J.J.J.1.J.J.-.J.J.J.-.J.J.J.J.J.J.J.J.J.J.J.J.J.J.J.J.J.J.J.J.J.J.",
"J.J.J.J.f.l.p.B.F.c.c.x.a.g.Y J.J.J.J.J.J.J.J.J.J.J.J.J.3.J.J.J.J.J.J.J.J.J.J.J.J.J.J.J.J.J.J.J.J.J.J.J.J.J.J.",
"J.J.J.J.J.J.! g.` ~ { i J.J.J.J.J.J.J.J.J.J.J.J.J.J.J.J.J.J.J.J.J.J.J.J.J.J.J.J.J.J.J.J.J.J.J.J.J.J.J.J.J.J.J.",
"J.J.J.J.J.J.J.J.J.J.J.J.J.J.J.J.J.J.J.J.J.J.J.J.J.J.J.J.J.J.J.J.J.J.J.J.J.J.J.J.J.J.J.J.J.J.J.J.J.J.J.J.J.J.J.",
"J.J.J.J.J.J.J.J.J.J.J.J.J.J.J.J.J.J.J.J.J.J.J.J.J.J.J.J.J.J.J.J.J.J.J.J.J.J.J.J.J.J.J.J.J.J.J.J.J.J.J.J.J.J.J.",
"J.J.J.J.J.J.J.J.J.J.J.J.J.J.J.J.J.J.J.J.J.J.J.J.J.J.J.J.J.J.J.J.J.J.J.J.J.J.J.J.J.J.J.J.J.J.J.J.J.J.J.J.J.J.J.",
"J.J.J.J.J.J.J.J.J.J.J.J.J.J.J.J.J.J.J.J.J.J.J.J.J.J.J.J.J.J.J.J.J.J.J.J.J.J.J.J.J.J.J.J.J.J.J.J.J.J.J.J.J.J.J."
};
