/* XPM */
static char *_4d2a3a0c7e34560e596305526dcb5d6TcJh1CB7g6TvWiUJ[] = {
/* columns rows colors chars-per-pixel */
"55 55 134 2 ",
"   c #2B2026",
".  c #2D222A",
"X  c #32272D",
"o  c #34292F",
"O  c #332731",
"+  c #362B33",
"@  c #392E35",
"#  c #3A2E39",
"$  c #3C3136",
"%  c #3E333A",
"&  c #41363C",
"*  c #44393E",
"=  c #423641",
"-  c #463A42",
";  c #493E45",
":  c #4A3E49",
">  c #4C4146",
",  c #4D424A",
"<  c #51464D",
"1  c #54494E",
"2  c #524651",
"3  c #564B52",
"4  c #594E55",
"5  c #5A4E59",
"6  c #5C5156",
"7  c #5E535A",
"8  c #61565C",
"9  c #64595E",
"0  c #625661",
"q  c #665A62",
"w  c #695D64",
"e  c #6A5E68",
"r  c #6C6166",
"t  c #6E626A",
"y  c #71666C",
"u  c #74696E",
"i  c #786E6F",
"p  c #726670",
"a  c #766B72",
"s  c #796E74",
"d  c #7A6E78",
"f  c #7C7176",
"g  c #7E727A",
"h  c #807677",
"j  c #81767C",
"k  c #84797E",
"l  c #887E7F",
"z  c #837781",
"x  c #867A82",
"c  c #897E84",
"v  c #8A7E88",
"b  c #8C8186",
"n  c #8E838A",
"m  c #91868C",
"M  c #958A8E",
"N  c #94898F",
"B  c #94898E",
"V  c #988E8F",
"C  c #938791",
"Z  c #938890",
"A  c #948991",
"S  c #958A90",
"D  c #968B91",
"F  c #958A92",
"G  c #978C92",
"H  c #968B92",
"J  c #988D91",
"K  c #988D93",
"L  c #998E92",
"P  c #9A8F93",
"I  c #988D95",
"U  c #998E94",
"Y  c #9A8F95",
"T  c #998D97",
"R  c #998E96",
"E  c #998E94",
"W  c #9B8F99",
"Q  c #9A8E99",
"!  c #9B9096",
"~  c #9C9197",
"^  c #9D9296",
"/  c #9E9397",
"(  c #9C9196",
")  c #9B9098",
"_  c #9C9199",
"`  c #9D9298",
"'  c #9E9399",
"]  c #9D929A",
"[  c #9E939B",
"{  c #9F949A",
"}  c #9E929C",
"|  c #9F939D",
" . c #9F949C",
".. c #9E929A",
"X. c #A0959B",
"o. c #A1969A",
"O. c #A0959D",
"+. c #A1969C",
"@. c #A2979D",
"#. c #A0949E",
"$. c #A1959F",
"%. c #A1969E",
"&. c #A2979F",
"*. c #A1969C",
"=. c #A3989E",
"-. c #A4999D",
";. c #A4999F",
":. c #A59A9E",
">. c #A69B9F",
",. c #A4999E",
"<. c #A397A1",
"1. c #A296A1",
"2. c #A59AA0",
"3. c #A69BA1",
"4. c #A59AA2",
"5. c #A59AA1",
"6. c #A89DA3",
"7. c #A99EA4",
"8. c #AA9FA5",
"9. c #A99EA6",
"0. c #A99EA4",
"q. c #AB9FA9",
"w. c #ABA0A6",
"e. c #ACA1A7",
"r. c #ABA0A8",
"t. c #AEA2AC",
"y. c #AFA4AC",
"u. c #ADA2A9",
"i. c #B0A5AB",
"p. c #B0A4AE",
"a. c #B2A7AD",
"s. c #B4A9AF",
"d. c #B2A6B1",
"f. c #B7ACB2",
/* pixels */
"f j b B J J J B 1.4.r.y.y.y.r.9.y.1.w.] ] 4.i * g U / U { =.=.w.&.w.' { { { 2.B y q Z Z m b B G k g b y > 7 b ",
"^ / o.:.>.:.+.X.} 1.4.4.1.#.[ ] 4._ :.! ( :.s - g G  .(  .:. .:.w.a.{  .=.{ =.m 3 3 V >.w. .6.2. .'  .b 7 u ' ",
"( J J J ^ ^ ` ^ F T _ } } } #.1.{ S { G U  .i * a M =. .=.{ ! ( { 2.I _ { V ' m > > m 2.w.R  .' ( F ' g 1 9 b ",
"b l k l x b x z x b A I Q T _ [ _ m { G U ( t % u M 4. .] S b b k b z b B m I b 1 > b ( V z b b R V ' g > 6 b ",
"B b l k k h s y g z b b v z g z A b I G G I t * y B :.] M x f g u g f b b c m b 6 , b V Z g b m ' ~  .k 1 9 m ",
"l k h h k h s y t s z z d d a s x g B S G U t - y M  .G b f u a g x g m Z c n c 7 , b =.R f g n G m ( g > 7 b ",
"i u y y s h f s p d z g d a d g g s n m M S r - u S =.M x s a f k b c V I c b b 9 < b  .V u g b ( G ( g 1 r Z ",
"k s y u f j k j g z z d p e p s g s b m B n 9 % a U 1.S g i s k z b l I I k b l 7 > k R G a k ' R m R g 3 r m ",
"l k l k h h i u h j j p e p d a i g h k n m y % f n U m k g l b g k b f { _ V k , > m R b b u m V b G g < 8 B ",
"B n M M M M n n c x m T C x z z b n B n B n q $ x m U M b m m m (  .>.b ( m U Z 1 - g b b U b / R m R b 7 r b ",
"r y r r w 9 9 8 0 3 < 3 < : 2 8 < 1 3 3 7 r 7 < f g f g g x l f r t r 6 7 3 6 q 7 * 6 6 6 q < 6 r q t r 1 6 u ",
"> > > * & & & o # & & - : = # @ @ @ o . o $ $ @ - * % % * % % @ * % $ % , * % - > . @ $ $ > $ $ $ $ % > % - 1 ",
"< < 1 1 4 6 8 8 8 w 3 = 3 e 0 5 p a i s a y r 9 7 7 7 6 4 3 1 1 1 < > 3 1 * $ 3 < & > < < 4 4 4 , - > - * - * ",
"V ^ o.:.7.e.a.a.i.q.a : e W q.q.] ] :.w.w.w.w.u.4.:.w.w.6. . .6.{  .( { s 4 6 G s.w.y.w.{ { =.{ ;.{ G V U m m ",
"^ ^ ^ o./ o.o.o.A A 9 - p Q T m 4.( S S M m M ] ( ( { :.:.( ( :.(  .{ >.y ; > m >.>.>.w.{ =.e.w.;.{ U P  .~ R ",
"P P P P V o.o.o.1.m 3 & a Q T } I V I  .=.U U ( M n m U ( B m m b m b ;.s < > c 2.=./ { Z B  .U { ~ Z U { ( Z ",
"} Q T C C T Q #.q.z 0 = d n C } V V ( ( ( ( ( V V B V V o.^ V M g n b  .u 7 % k  . .~ b g g b m m b z b Z G B ",
"n v x z z v T #.4.z e # p n C Q U V V V V U V V b b b b M M b l b n g G t 6 % k w.w.U g u s g g b g g c Z I V ",
"T C v z z v C Q 1.v e = p F F C S V V U I ( I Q o.( V V V V M b b b g m r 1 % b e.;.U k g k b b g i y g b B m ",
"v z d e q e d z T v e = p T v d l l m M S S S m / V M B B m l l k k k B y < $ b { B b g g b m B m k f l Z I B ",
"g d p e 0 t d z T v e = p F z e a a d g z c v c C n m C G B n x k b b m y < * m e.{ m b b b m G b z g l B V m ",
"v z d d p d d z C v p % e z d e t t e e t p d z z z c C G G C b b m m k r 3 1 m ;.~ B m Z m B V G b c m ( / ( ",
"e e e 0 5 5 5 7 e p e = 5 e 0 5 7 3 3 2 3 5 0 0 5 5 5 0 e e e 0 t t y 6 6 1 < i r 7 q r r q r r 6 3 1 4 7 8 7 ",
"% = - = - - - = O : 0 # : = + = # % = = = = # # # # # # # = % # o @ % o > - @ 1 $ $ % * - % $ % > * * - - * * ",
"2 2 : : - - - : : : : : : , : : 2 7 2 # 7 5 4 0 5 5 a : . 5 0 2 3 1 1 < 1 1 1 1 < 1 > ; < < * > * > - @ 1 * * ",
"v C C T Q Q Q Q F C n C T F F v C d 2 - F d.t.:.d.1.4.w 2 d v C U U U R U ~ ~ R ) [ V b b z f g g t 1 < b m b ",
"C Q W 1.1.4.4.4.q.1.| 1.1.1.} F T d , # x q.a.u.d.#.F 2 = z Q 1.w.w.e.e.e.w.e.e.&.y.>.=. .( V  .m r ; < ' r.{ ",
"v n C C T T Q Q } } Q Q T F C C n d 5 # r z B l c z z > = z F 9.;.{ { { ~ ~ { ;.R =.' ( { ' _ 2.c r < 3 { >.{ ",
"v v F Q Q Q T C C F Q Q Q I I ' I u 1 $ i b M u i h l < , g b  . .R m m m b Z ~ { { G m F Z m B m r 1 4 { =.{ ",
"v v C F C v d p p g v n C S )  .[ p > @ r B M r i l l > - a g ' R b f g k b b B V G b g b b k z B q * > G { ' ",
"v C v C v z a t p s g v A Q / ( ^ i 4 % r l V i i l l > > f l >.~ l f k Z G Z U b m c g c l z b V t > 1 R =. .",
"v v v z z v v C g s d x I [ V m B r > $ r V / y f b l > > g g / U g i b U ~ R R k l k f s i u g k q 3 6 Z B B ",
"C v v v n b c x z x c x b n n B >.y > @ r B { i k b m 4 > u b ;.b l f h b V ( ( l l k g g h l b h w > 6 / l b ",
"m n b n b c z k k k k x c n m B b y 1 $ r n / l Z b g > - g b ' Z b h l b B V B b l l h l l l m l w > 8 / l b ",
"x z k z k j f a f s f f k z b b Z k 6 @ y m U n b b b > > z m R B b l k b b b b m m l b l m M M b w > 9 / l l ",
"b b b x k k j f j k z b n m A A ;.m 1   r Z Z b g b m < % i b ;.( V m m m m n b b b b l l l l m l 9 * 6 V h h ",
"B B m b k k j j g g b b m B n b Z b 4 $ s V { ~ G Z Z 3 > g F a.w.;.1.O.1.&.| _ 1.O.#.| {  .w.:.B u 1 r :.n n ",
"q q 9 8 6 1 3 1 < 1 6 6 7 7 6 4 q r 6 * r t f k g u i 4 6 k i g 6 4 3 3 3 4 5 3 0 0 7 7 7 9 9 9 i 9 > 4 l a u ",
"$ & * * * & & & $ % & * % % $ $ - % > % > + * > > % < * < 7 % $ - - = = = = = = = = = # = = = - & ; $ + 4 & = ",
"& ; 3 8 9 9 9 9 8 8 7 6 6 6 6 6 q > 1 1 6 - < > 1 * 1 * * 1 * 1 , , > - , , 2 2 , 2 , , , 2 2 2 ; 8 4 > 7 * - ",
"6 > B s.s.4.a.a.w.w.6.6.6.u.i.s.u.6.f.;.r - b ~ ~ ~ ~ '  .;.2.&.#.C 0 : m Q C I Q Q Q | #.#.Q T Q Q } } } I I ",
"7 > x 4.u.:.w.w.:.=.=.{ { { { { { U V g 6 % i B R U R R {  .{ [ F v 0 - v Q #.] 1.#.#.#.1.1.#.} #.| Q Q Q I A ",
"t < k _ u.6.6. .=.{ { ! ! ! G G { U g r 7 % y m U U G G V Z m b C d 7 , d F w.' #._ Q _ | | } Q Q F n n Z Z v ",
"r 4 l U u.=._ S ( ! ! ( G I ! / -.{ g 7 q > r Z R G m b b k g s n p 7 > p n  ./ Q R R R F F F C Q n v v v n x ",
"6 1 x G 6.S b b n n n b b n G ! ( ;.g 7 r * 7 Z ~ V b b k g g a n a 7 > y l / V / ^ / ^ R Z B m F n v v n C n ",
"1 4 b V 6.m g k b b b c x b n B Z ;.b r r % 7 b Z B b k k k c b b a 7 % i l ^ V ( ^ ( V m n b b n v z v n C n ",
"< 7 b m 4.n f g g c b c x b b n U { m y r $ q m G m k g z b b m l i 6 % f m V V V V B l h g f g z z z v v v v ",
"< 6 z c 1.b a s a f c b b x c b ~ ~ b y q % r m m b g g g b b m b l 6 * h m m V / V m h i i f g z z v v n n n ",
"3 < g Q C d 0 t t p p z v C v v T v c t 7 - r b G b g g g g b b b k r ; i b V B V m l f f f f s s d g x n n n ",
", , d n z d e a e e p a z x z g v z b u 7 - r n m n b k b m m b b g 7 > f B V b n c g s s f s a z j x x v v z ",
"4 7 v C z a e e t t p d z z z z z x n u 6 * t ! b k g z b b b z b f 6 * g I ] Z n n x g f g j g p p a g z v v ",
", 5 v C v n z g p p d z z v v z m b B t 6 > a =. .F b n G G m b b g 7 > g V ' ( n n c z k l c z j j z z z z d ",
"3 0 z z d z d a d z d z z v v v z g g q 7 , p b b z d d g z g d a a q < g g b z c v c z z x b x d d d d d d z ",
"0 5 e 2 : : : : : - : : : : : : 3 , 3 , 3 - 2 4 > > , , 3 2 , > , 4 5 > r 2 , , ; , , - = : , > = , 2 5 0 0 e ",
": + # = + = = : : - : - - : : : % + % + = + % @ % % % - - % % % + = > + < % % @ * ; ; = = : > : = = = = # # # "
};
